<svg width="35" height="42" viewBox="0 0 35 42" fill="none" xmlns="http://www.w3.org/2000/svg">
<path d="M12 41C13.1046 41 14 39.8807 14 38.5C14 37.1193 13.1046 36 12 36C10.8954 36 10 37.1193 10 38.5C10 39.8807 10.8954 41 12 41Z" fill="white" stroke="white" stroke-width="2" stroke-linecap="round" stroke-linejoin="round"/>
<path d="M30 41C31.1046 41 32 39.8807 32 38.5C32 37.1193 31.1046 36 30 36C28.8954 36 28 37.1193 28 38.5C28 39.8807 28.8954 41 30 41Z" fill="white" stroke="white" stroke-width="2" stroke-linecap="round" stroke-linejoin="round"/>
<path d="M1 1.94165H6.3913L10.4348 30.8162H32" stroke="white" stroke-width="2" stroke-linecap="round" stroke-linejoin="round"/>
<path d="M10.6143 23.3646H30.9931C31.1442 23.3648 31.2907 23.2977 31.4077 23.1748C31.5246 23.052 31.6047 22.8809 31.6344 22.6908L33.9873 7.60156C34.0063 7.47989 34.004 7.35433 33.9805 7.23394C33.9571 7.11355 33.9131 7.00134 33.8517 6.9054C33.7904 6.80946 33.7132 6.73219 33.6257 6.67916C33.5383 6.62613 33.4427 6.59867 33.346 6.59876H8" stroke="white" stroke-width="2" stroke-linecap="round" stroke-linejoin="round"/>
</svg>
