<svg width="29" height="26" viewBox="0 0 29 26" fill="none" xmlns="http://www.w3.org/2000/svg">
<path d="M24.3285 1.29467C24.0835 0.900697 23.7379 0.5746 23.3251 0.347829C22.9123 0.121057 22.4462 0.00126217 21.9718 0H7.02825C6.0685 0 5.16513 0.496 4.6715 1.29467L0.946626 7.31333C0.817727 7.52055 0.749732 7.75801 0.750001 8C0.755492 9.28695 1.24431 10.5279 2.125 11.4907V22.6667C2.125 24.1373 3.35838 25.3333 4.875 25.3333H24.125C25.6416 25.3333 26.875 24.1373 26.875 22.6667V11.4907C27.7557 10.5279 28.2445 9.28695 28.25 8C28.2503 7.75801 28.1823 7.52055 28.0534 7.31333L24.3285 1.29467ZM25.478 8.33467C25.3931 8.97843 25.0694 9.57019 24.5674 9.99937C24.0653 10.4285 23.4193 10.6657 22.75 10.6667C21.2334 10.6667 20 9.47067 20 8C20 7.90933 19.9656 7.82933 19.9464 7.744L19.9739 7.73867L18.9275 2.66667H21.9718L25.478 8.33467ZM12.8761 2.66667H16.1225L17.2404 8.08667C17.1923 9.516 15.985 10.6667 14.5 10.6667C13.015 10.6667 11.8078 9.516 11.7596 8.08667L12.8761 2.66667ZM7.02825 2.66667H10.0725L9.0275 7.73867L9.055 7.744C9.03438 7.82933 9 7.90933 9 8C9 9.47067 7.76663 10.6667 6.25 10.6667C5.58072 10.6657 4.93469 10.4285 4.43263 9.99937C3.93058 9.57019 3.60687 8.97843 3.522 8.33467L7.02825 2.66667ZM11.75 22.6667V18.6667H17.25V22.6667H11.75ZM20 22.6667V18.6667C20 17.196 18.7666 16 17.25 16H11.75C10.2334 16 9 17.196 9 18.6667V22.6667H4.875V13.144C5.31638 13.2547 5.7715 13.3333 6.25 13.3333C7.03075 13.3337 7.80259 13.1725 8.51394 12.8605C9.2253 12.5485 9.85979 12.0928 10.375 11.524C11.3829 12.6333 12.8596 13.3333 14.5 13.3333C16.1404 13.3333 17.6171 12.6333 18.625 11.524C19.1402 12.0928 19.7747 12.5485 20.4861 12.8605C21.1974 13.1725 21.9693 13.3337 22.75 13.3333C23.2285 13.3333 23.6836 13.2547 24.125 13.144V22.6667H20Z" fill="white"/>
</svg>
